PathFileType	4	(X/Y/Z)	Walk7.trc
DataRate	CameraRate	NumFrames	NumMarkers	Units	OrigDataRate	OrigDataStartFrame	OrigNumFrames
200.000000	200.000000	7	71	mm	200.000000	616	658
Frame#	Times		T10		RPSI		LowerBodyModelVer		RTH4		RElbow		C7		LBHD		LToe		LMT5		RBHD		RBack		LMT1		LTB1		LWRU		LLMAL		LTB3		RTH2		RUA1		LElbowM		LTB4		LLFC		LTB2		LTH3		RLFC		LACR1		RTB2		RTH3		RMFC		RKJC		RTB3		LASI		LElbow		LUA1		RTB1		RToe		LMFC		LKJC		RFA1		RWRU		RCAR		RMT1		RTB4		RWRR		RCAL		RMT5		RMMAL		RLMAL		LFHD		RFHD		LPSI		SACR		LCAR		LMMAL		LTH4		LCAL		RASI		LTH1		LHJC		MidPelvis		OPelvis		PELOrigin		RHJC		XPelvis		YPelvis		ZPelvis		LWRR		LTH2		RTH1		RACR1		RElbowM		STRN
			X1	Y1	Z1	X2	Y2	Z2	X3	Y3	Z3	X4	Y4	Z4	X5	Y5	Z5	X6	Y6	Z6	X7	Y7	Z7	X8	Y8	Z8	X9	Y9	Z9	X10	Y10	Z10	X11	Y11	Z11	X12	Y12	Z12	X13	Y13	Z13	X14	Y14	Z14	X15	Y15	Z15	X16	Y16	Z16	X17	Y17	Z17	X18	Y18	Z18	X19	Y19	Z19	X20	Y20	Z20	X21	Y21	Z21	X22	Y22	Z22	X23	Y23	Z23	X24	Y24	Z24	X25	Y25	Z25	X26	Y26	Z26	X27	Y27	Z27	X28	Y28	Z28	X29	Y29	Z29	X30	Y30	Z30	X31	Y31	Z31	X32	Y32	Z32	X33	Y33	Z33	X34	Y34	Z34	X35	Y35	Z35	X36	Y36	Z36	X37	Y37	Z37	X38	Y38	Z38	X39	Y39	Z39	X40	Y40	Z40	X41	Y41	Z41	X42	Y42	Z42	X43	Y43	Z43	X44	Y44	Z44	X45	Y45	Z45	X46	Y46	Z46	X47	Y47	Z47	X48	Y48	Z48	X49	Y49	Z49	X50	Y50	Z50	X51	Y51	Z51	X52	Y52	Z52	X53	Y53	Z53	X54	Y54	Z54	X55	Y55	Z55	X56	Y56	Z56	X57	Y57	Z57	X58	Y58	Z58	X59	Y59	Z59	X60	Y60	Z60	X61	Y61	Z61	X62	Y62	Z62	X63	Y63	Z63	X64	Y64	Z64	X65	Y65	Z65	X66	Y66	Z66	X67	Y67	Z67	X68	Y68	Z68	X69	Y69	Z69	X70	Y70	Z70	X71	Y71	Z71

616	3.08	664.21	1227.9	-45.364	645.44	1042.1	-7.3713	9	2014	4	881.6	677.22	137.15	683.54	1103.7	162.15	742.29	1484.8	-51.745	780.36	1617.8	-110.94	941.13	29.466	-76.03	847.11	22.029	-135.36	779.65	1610.8	25.785	713.07	1377.8	102.27	886.64	30.231	-50.994	839.79	386.61	-63.849	872.27	812.41	-330.01	732.06	59.89	-106.28	793.76	205.01	-55.708	940.17	703.44	101.31	798.66	1256.4	197.71	740.66	1069.6	-266.42	817.6	296.34	-59.587	805.21	515.06	-151.37	815.3	295	-132.43	815.56	578.21	-161.65	925.93	544.37	116.41	839.34	1420.1	-215.4	877.93	321.63	109.84	913.16	588.09	119.28	919.47	513.75	-10.756	922.7	529.06	52.825	850.88	237.56	35.149	846.91	1035.8	-189.46	788.55	1081.4	-335.48	822.58	1217.2	-293.07	939.27	402.75	38.94	938.27	63.331	93.25	789.22	496.61	-24.199	797.22	505.83	-87.783	750.73	940.6	240.55	770.48	821.95	208.25	839.41	804.31	235.55	893.16	56.304	50.918	894.71	315.98	34.698	847.41	851.77	188.27	694.67	100.26	21.247	848.94	60.402	119.64	785.42	122.58	10.347	750.78	129.27	85.184	958.66	1644.7	-78.467	958.24	1640.4	3.568	651.11	1042.1	-76.426	648.28	1042.1	-41.898	944.84	804.57	-312.22	752.95	68.739	-23.352	812.67	671.15	-184.29	667.72	35.381	-57.842	833.98	1001.2	117.65	808.59	761.84	-204.4	761.28	941.45	-153.85	744.36	1030.3	-38.903	840.44	1018.5	-35.907	840.44	1018.5	-35.907	752.49	917.91	54.989	919.82	1008.7	-33.665	849.88	1097.4	-26.62	837.1	1009.5	43.52	928.15	844.51	-275.12	874.27	679.22	-144.44	821.43	784.83	160.37	843.64	1432	109.26	718.07	1099.6	240.55	952.34	1240.6	-44.536
617	3.085	668.76	1227.9	-45.424	650.12	1042.1	-7.3176	9	2014	4	887.25	677.28	137.04	687.92	1103.8	161.92	746.78	1484.6	-51.989	784.8	1617.8	-111.21	941.28	29.098	-76.152	847.14	22.164	-135.45	784.18	1610.7	25.447	717.55	1377.6	102.15	886.67	30.228	-51.007	840.97	386.18	-63.634	881.49	812.99	-330.27	732.09	59.907	-106.23	798.66	206	-57.782	945.51	704.06	100.71	802.75	1256.4	197.44	747.2	1069.1	-267.29	818.64	295.96	-59.277	807.07	514.79	-151.29	816.43	294.7	-132.39	817.78	578.15	-161.85	931.94	544.96	116.08	843.79	1420.2	-215.71	888.75	320.51	109.44	918.82	588.38	118.84	925	513.79	-10.88	928.47	529.37	52.6	863.89	235.85	34.494	851.41	1035.7	-189.77	795.43	1081.3	-336.27	828.28	1217.2	-293.49	948.18	403.18	38.502	955.36	63.048	93.399	791.05	496.53	-24.025	799.06	505.66	-87.658	754.44	940.62	239.99	774.44	822.06	207.72	843.32	804.12	234.96	910.35	55.427	50.838	905.67	315.25	34.162	851.44	851.76	187.91	710.46	94.723	20.619	865.7	58.351	119.42	801.29	119.37	9.8464	766.23	124.99	84.534	963.2	1644.5	-78.587	962.83	1640.3	3.4061	655.65	1042.1	-76.533	652.89	1042.1	-41.925	954.09	805.86	-312.17	753.05	68.928	-23.383	815.59	670.99	-184.26	668.03	35.612	-58.143	838.6	1001.2	117.36	812.26	761.7	-204.22	765.79	941.42	-154.11	748.95	1030.3	-39.067	845	1018.5	-36.208	845	1018.5	-36.208	757.08	917.92	54.74	924.38	1008.7	-33.995	854.44	1097.4	-26.938	841.69	1009.5	43.222	936.85	845.61	-275.19	877.16	678.69	-144.31	829.1	786.19	160.03	847.92	1432	109.14	722.13	1099.7	240.06	956.76	1240.7	-44.941
618	3.09	673.18	1227.9	-45.444	654.73	1041.8	-7.2055	9	2014	4	892.73	677.58	137.25	692.27	1103.8	161.47	751.1	1484.5	-52.147	789.27	1617.8	-111.48	941.29	28.726	-76.232	847.17	22.167	-135.44	788.68	1610.7	25.429	721.99	1377.4	101.88	886.6	30.421	-51.19	842.31	385.69	-63.537	890.67	813.65	-330.49	732.14	59.904	-106.18	800.93	206.53	-58.811	950.59	704.45	100.08	806.81	1256.5	197.24	753.8	1068.6	-268.41	819.9	295.93	-59.428	808.83	514.45	-151.11	817.53	294.44	-132.36	820.35	577.96	-161.84	937.71	545.45	115.76	848.09	1420.3	-215.91	899.42	319.54	108.75	924.69	588.88	118.47	930.48	513.78	-11.012	934.1	529.61	52.375	876.73	234.1	34.181	855.78	1035.7	-190.12	802.24	1081.2	-337.01	834.06	1217.4	-293.96	956.96	403.58	38.117	972.32	62.721	93.508	793.03	496.36	-23.976	800.93	505.4	-87.544	758.2	940.55	239.43	778.63	822.26	207.3	847.19	804.07	234.58	927.52	54.514	50.872	916.64	314.21	33.954	855.52	851.77	187.57	727.66	89.281	19.268	882.6	56.357	118.99	817.54	116.24	9.1818	781.49	120.83	83.537	967.64	1644.4	-78.648	967.28	1640.2	3.4947	660.12	1041.9	-76.349	657.43	1041.9	-41.777	963.28	807.06	-312.08	753.71	69.089	-23.499	818.74	670.79	-184.16	667.84	35.246	-57.516	843.43	1001	116.94	816.01	761.34	-204.11	770.27	941.34	-154.39	753.52	1030.1	-39.184	849.61	1018.3	-36.59	849.61	1018.3	-36.59	761.86	917.72	54.405	928.98	1008.6	-34.497	859.03	1097.2	-27.289	846.41	1009.3	42.839	945.56	846.81	-275.21	880.02	678.13	-144	836.81	786.81	159.47	852.16	1432	108.89	726.24	1099.8	239.69	961.25	1240.6	-45.454
619	3.095	677.6	1227.6	-45.534	659.42	1041.6	-7.0585	9	2014	4	898.23	677.43	137.2	696.57	1103.8	161.04	755.52	1484.4	-52.438	793.76	1617.7	-111.67	941.37	28.346	-76.331	847.23	22.112	-135.4	792.95	1610.5	25.157	726.32	1377.3	101.43	886.64	30.507	-51.293	843.59	385.33	-63.459	899.76	814.16	-330.63	732.24	59.911	-106.11	801.16	206.29	-58.569	955.7	704.77	99.333	811.16	1256.5	197.06	760.23	1068	-269.37	821.21	295.81	-59.651	810.65	514.16	-151.01	818.67	294.11	-132.29	822.66	578.19	-161.39	943.36	545.55	115.29	852.5	1420.2	-216.14	909.69	318.27	108.32	930.05	588.97	118.12	935.8	513.6	-11.161	939.58	529.57	52.067	889.5	232.24	33.838	860.18	1035.7	-190.42	809.06	1081	-337.8	839.83	1217.3	-294.45	965.54	403.85	37.816	989.53	62.522	93.668	794.88	496.17	-23.918	802.76	505.17	-87.465	762.12	940.46	238.95	782.84	822.28	206.95	851.01	803.91	234.39	944.81	53.506	50.822	927.12	313.11	34.021	859.61	851.64	187.15	745.4	84.879	17.367	899.56	54.572	118.65	833.85	113.06	8.4949	796.71	116.74	82.691	972	1644.2	-78.646	971.51	1639.9	3.4494	664.53	1041.7	-76.277	661.98	1041.7	-41.668	972.47	808.35	-312.06	754.12	68.773	-23.293	822.49	670.51	-183.4	667.69	35.083	-57.092	848.07	1000.9	116.48	819.8	760.91	-203.95	774.8	941.33	-154.68	758.05	1030	-39.319	854.13	1018.3	-36.97	854.13	1018.3	-36.97	766.56	917.66	54.008	933.51	1008.6	-34.934	863.5	1097.2	-27.651	850.99	1009.3	42.459	954.17	847.98	-275.28	882.63	677.69	-143.76	844.5	786.66	158.7	856.97	1431.9	108.49	730.53	1099.7	239.35	965.92	1240.5	-45.955
620	3.1	682.29	1227.4	-45.684	664.02	1041.5	-7.1011	9	2014	4	903.59	678.01	136.58	700.88	1103.9	160.68	760.08	1484.2	-52.68	798.33	1617.6	-111.82	941.48	27.961	-76.405	847.2	22.145	-135.3	797.35	1610.3	24.783	730.96	1377.1	101.1	886.7	30.478	-51.291	844.97	384.89	-63.296	908.88	814.73	-330.82	732.33	59.942	-106.05	800.85	205.66	-57.811	960.73	705.08	98.588	815.63	1256.4	196.83	766.82	1067.3	-270.53	822.43	295.56	-59.757	812.68	513.86	-150.98	819.81	293.74	-132.15	824.76	577.78	-161.68	948.84	545.67	114.77	856.95	1420.1	-216.39	919.96	317.15	108.07	935.45	589.29	117.58	940.97	513.45	-11.312	944.9	529.56	51.732	902.07	230.43	33.562	864.62	1035.6	-190.7	815.82	1080.9	-338.51	845.41	1217.3	-294.82	973.94	404.11	37.556	1006.6	62.34	93.791	796.68	495.9	-24.138	804.68	504.88	-87.558	766.44	940.38	238.69	786.77	822.19	206.63	854.92	803.62	234.15	962.07	52.949	50.519	937.43	312.15	34.063	863.71	851.62	186.73	761.72	79.473	16.6	916.36	52.727	118.38	850.05	109.83	7.9596	812.26	112.87	81.998	976.49	1644.1	-78.694	975.91	1639.7	3.2686	669.07	1041.6	-76.307	666.54	1041.6	-41.704	981.63	809.68	-311.89	755.19	68.667	-23.214	826.42	669.41	-182.29	667.68	35.167	-56.983	853.16	1000.8	116.15	823.64	760.64	-203.8	779.36	941.26	-154.8	762.72	1029.9	-39.491	858.89	1018.2	-37.278	858.89	1018.2	-37.278	771.57	917.57	53.853	938.29	1008.6	-35.407	868.26	1097.1	-27.972	855.92	1009.2	42.157	962.85	849.09	-275.31	885.55	677.06	-143.45	852.12	785.75	157.74	861.68	1431.8	108.08	734.75	1099.6	239.07	970.61	1240.4	-46.355
621	3.105	686.89	1227.4	-45.964	668.57	1041.2	-7.1568	9	2014	4	909.01	677.54	135.99	705.19	1103.8	160.52	764.49	1484	-52.809	802.89	1617.5	-112.04	941.6	27.653	-76.507	847.18	22.101	-135.38	801.86	1610.2	24.569	735.56	1377	100.83	886.71	30.44	-51.302	846.35	384.47	-63.329	917.99	815.36	-330.93	732.33	59.964	-105.99	801.11	205.19	-57.382	965.49	705.22	97.872	819.85	1256.4	196.59	773.61	1066.6	-271.65	823.43	295.35	-59.741	814.63	513.55	-150.96	820.93	293.41	-132.05	827.27	577.57	-161.37	954.3	545.81	114.06	861.43	1420	-216.59	930.46	316.37	107.64	940.68	589.33	117.27	946.02	513.14	-11.564	950.16	529.48	51.247	914.68	228.73	33.447	869.03	1035.3	-190.92	822.65	1080.7	-339.27	850.99	1217.3	-295.28	982.29	404.3	37.296	1024	62.427	93.81	798.51	495.65	-24.354	806.57	504.6	-87.657	770.98	940.37	238.79	790.58	822.09	206.34	858.82	803.57	233.78	979.33	52.425	50.523	948.07	311.43	33.884	867.8	851.5	186.45	778.22	74.228	16.052	933.45	51.154	118.1	866.32	106.91	7.4134	828.05	109	81.343	981.1	1643.9	-78.857	980.48	1639.5	3.1109	673.67	1041.5	-76.005	671.12	1041.4	-41.581	990.62	810.85	-311.7	756.03	68.618	-23.252	827.73	669.06	-183.96	667.71	35.261	-56.982	857.88	1000.5	115.9	827.12	760.55	-203.62	783.77	941.01	-154.94	767.29	1029.6	-39.546	863.45	1017.9	-37.512	863.45	1017.9	-37.512	776.18	917.32	53.695	942.85	1008.2	-35.727	872.88	1096.8	-28.211	860.57	1008.9	41.926	971.44	850.23	-275.36	888.93	676.6	-143.25	859.61	784.11	156.59	866.07	1431.6	107.93	738.9	1099.6	238.94	975.06	1240.3	-46.679
622	3.11	691.33	1227.2	-45.884	673.25	1040.8	-6.7937	9	2014	4	914.23	677.79	135.53	709.52	1103.8	160.34	768.92	1483.8	-52.775	807.44	1617.3	-112.18	941.57	27.425	-76.63	847.15	21.925	-135.25	806.36	1610	24.425	740.04	1376.9	100.74	886.92	30.525	-51.425	848.05	384.13	-63.492	927.06	816	-331.28	732.35	59.966	-105.9	801.86	204.84	-57.221	970.4	705.23	96.996	824.31	1256.2	196.46	780.28	1065.9	-272.29	824.35	294.88	-59.55	816.66	513.29	-150.94	822.04	293.09	-132.02	830.04	577.35	-161.48	959.34	545.93	113.6	865.93	1419.9	-216.75	940.61	315.2	107.27	945.68	589.39	117.02	950.82	512.7	-11.751	955.08	529.32	50.925	927.63	227.25	33.169	872.87	1034.9	-190.83	829.42	1080.4	-339.94	856.62	1217.3	-295.74	990.54	404.54	37.039	1041.1	62.565	93.986	800.39	495.4	-24.41	808.52	504.35	-87.676	775.19	940.26	238.69	794.53	821.94	205.92	863.01	803.41	233.25	997.02	52.207	50.471	958.6	310.8	33.572	871.79	851.13	186.07	795.41	69.361	15.052	950.41	49.779	117.8	882.73	104.16	6.8081	843.87	105.16	80.606	985.8	1643.7	-79.034	985.15	1639.3	2.931	678.1	1041.3	-75.59	675.68	1041	-41.192	999.51	812.12	-311.49	756.29	68.642	-23.17	830.28	669.45	-184.81	667.73	35.325	-56.941	862.37	1000.3	115.89	829.58	760.91	-204.55	787.72	940.69	-154.62	771.65	1029.3	-39.33	867.62	1017.6	-37.468	867.62	1017.6	-37.468	780.58	917.16	53.949	947.01	1007.9	-35.843	877.06	1096.5	-28.243	864.9	1008.7	41.982	979.87	851.37	-275.37	892.12	675.98	-143.17	866.93	781.8	155.28	870.63	1431.4	107.87	743.3	1099.4	238.74	979.32	1240	-46.988
